<?xml version="1.0" encoding="utf-8"?>
<!-- Generator: Adobe Illustrator 23.0.0, SVG Export Plug-In . SVG Version: 6.00 Build 0)  -->
<svg version="1.1" id="Layer_1" xmlns="http://www.w3.org/2000/svg" xmlns:xlink="http://www.w3.org/1999/xlink" x="0px" y="0px"
	 viewBox="0 0 1417 1417" style="enable-background:new 0 0 1417 1417;" xml:space="preserve">
<style type="text/css">
	.st0{fill:#F7BE5F;}
	.st1{fill:#FFFFFF;}
</style>
<path class="st0" d="M1088.6,0H328.4C147.3,0,0,147.3,0,328.4v760.2C0,1269.7,147.3,1417,328.4,1417h760.2
	c181.1,0,328.4-147.3,328.4-328.4V328.4C1417,147.3,1269.7,0,1088.6,0z"/>
<g>
	<g>
		<path class="st1" d="M343,849.8c-8.7,0-17.7-2.3-25.8-7c-24.8-14.3-33.2-45.9-19-70.6l310.3-537.4c14.3-24.8,45.9-33.2,70.6-19
			c24.8,14.3,33.2,45.9,19,70.6L387.9,823.9C378.3,840.5,360.8,849.8,343,849.8z"/>
		<path class="st1" d="M346.4,1208.2c-8.7,0-17.7-2.3-25.8-7c-24.8-14.3-33.2-45.9-19-70.6l310.3-537.4c14.3-24.8,45.9-33.2,70.6-19
			c24.8,14.3,33.2,45.9,19,70.6l-310.3,537.4C381.7,1198.8,364.4,1208.2,346.4,1208.2z"/>
		<path class="st1" d="M760.2,491.6c-8.7,0-17.7-2.3-25.8-7c-24.8-14.3-33.2-45.9-19-70.6l103.4-179.2c14.3-24.8,45.9-33.2,70.6-19
			c24.8,14.3,33.2,45.9,19,70.6L805.1,465.6C795.5,482.2,778,491.6,760.2,491.6z"/>
		<path class="st1" d="M556.7,1208.2c-8.7,0-17.7-2.3-25.8-7c-24.8-14.3-33.2-45.9-19-70.6l517.2-895.8c14.3-24.8,45.9-33.2,70.6-19
			c24.8,14.3,33.2,45.9,19,70.6l-517.2,895.8C592,1198.8,574.7,1208.2,556.7,1208.2z"/>
		<path class="st1" d="M767,1208.2c-8.7,0-17.7-2.3-25.8-7c-24.8-14.3-33.2-45.9-19-70.6l103.4-179.2c14.3-24.8,45.9-33.2,70.6-19
			c24.8,14.3,33.2,45.9,19,70.6l-103.4,179.2C802.3,1198.8,785,1208.2,767,1208.2z"/>
	</g>
</g>
</svg>
