<?xml version="1.0" encoding="utf-8"?>
<!-- Generator: Adobe Illustrator 23.0.0, SVG Export Plug-In . SVG Version: 6.00 Build 0)  -->
<svg version="1.1" id="Layer_1" xmlns="http://www.w3.org/2000/svg" xmlns:xlink="http://www.w3.org/1999/xlink" x="0px" y="0px"
	 viewBox="0 0 1417 1417" style="enable-background:new 0 0 1417 1417;" xml:space="preserve">
<style type="text/css">
	.st0{fill:#F7BE5F;}
	.st1{fill:#FFFFFF;}
</style>
<g>
	<path class="st0" d="M957.8,1117.9H459.2c-86.2,0-156.1-69.9-156.1-156.1V463.3c0-86.2,69.9-156.1,156.1-156.1h498.5
		c86.2,0,156.1,69.9,156.1,156.1v498.5C1113.9,1048,1044,1117.9,957.8,1117.9z"/>
	<path class="st0" d="M943.1,1149.8H473.9c-111.8,0-202.7-90.9-202.7-202.7V477.9c0-111.8,90.9-202.7,202.7-202.7h469.2
		c111.8,0,202.7,90.9,202.7,202.7v469.2C1145.8,1058.9,1054.9,1149.8,943.1,1149.8z M473.9,339C397.3,339,335,401.3,335,477.9v469.2
		c0,76.6,62.3,138.9,138.9,138.9h469.2c76.6,0,138.9-62.3,138.9-138.9V477.9c0-76.6-62.3-138.9-138.9-138.9H473.9z"/>
</g>
<g>
	<g>
		<path class="st1" d="M482.9,799.7c-5.4,0-10.9-1.4-15.9-4.3c-15.3-8.8-20.5-28.3-11.7-43.6l191.5-331.7
			c8.8-15.3,28.3-20.5,43.6-11.7c15.3,8.8,20.5,28.3,11.7,43.6L510.6,783.7C504.7,794,493.9,799.7,482.9,799.7z"/>
		<path class="st1" d="M485,1020.9c-5.4,0-10.9-1.4-15.9-4.3c-15.3-8.8-20.5-28.3-11.7-43.6l191.5-331.7
			c8.8-15.3,28.3-20.5,43.6-11.7c15.3,8.8,20.5,28.3,11.7,43.6l-191.5,331.7C506.8,1015.1,496.1,1020.9,485,1020.9z"/>
		<path class="st1" d="M740.4,578.6c-5.4,0-10.9-1.4-15.9-4.3c-15.3-8.8-20.5-28.3-11.7-43.6l63.8-110.6
			c8.8-15.3,28.3-20.5,43.6-11.7c15.3,8.8,20.5,28.3,11.7,43.6l-63.8,110.6C762.2,572.8,751.4,578.6,740.4,578.6z"/>
		<path class="st1" d="M614.8,1020.9c-5.4,0-10.9-1.4-15.9-4.3c-15.3-8.8-20.5-28.3-11.7-43.6l319.2-552.9
			c8.8-15.3,28.3-20.5,43.6-11.7c15.3,8.8,20.5,28.3,11.7,43.6l-319.2,552.9C636.6,1015.1,625.9,1020.9,614.8,1020.9z"/>
		<path class="st1" d="M744.6,1020.9c-5.4,0-10.9-1.4-15.9-4.3c-15.3-8.8-20.5-28.3-11.7-43.6l63.8-110.6
			c8.8-15.3,28.3-20.5,43.6-11.7c15.3,8.8,20.5,28.3,11.7,43.6l-63.8,110.6C766.4,1015.1,755.7,1020.9,744.6,1020.9z"/>
	</g>
</g>
</svg>
