<svg id="Layer_1" data-name="Layer 1" xmlns="http://www.w3.org/2000/svg" viewBox="0 0 1417 1417"><defs><style>.cls-1{fill:#f7be5f;}</style></defs><title>Artboard 1</title><path class="cls-1" d="M312.24,865.78a56.12,56.12,0,0,1-48.53-84.16l336.61-583a56.1,56.1,0,0,1,97.17,56.11l-336.61,583A56.09,56.09,0,0,1,312.24,865.78Z"/><path class="cls-1" d="M316,1254.47a56.12,56.12,0,0,1-48.53-84.16l336.61-583a56.1,56.1,0,1,1,97.17,56.11l-336.61,583A56.08,56.08,0,0,1,316,1254.47Z"/><path class="cls-1" d="M764.8,477.09a56.12,56.12,0,0,1-48.53-84.16l112.2-194.35a56.1,56.1,0,0,1,97.17,56.11L813.44,449A56.09,56.09,0,0,1,764.8,477.09Z"/><path class="cls-1" d="M544.13,1254.47a56.12,56.12,0,0,1-48.53-84.16l561-971.73a56.1,56.1,0,0,1,97.17,56.11l-561,971.72A56.08,56.08,0,0,1,544.13,1254.47Z"/><path class="cls-1" d="M772.28,1254.47a56.12,56.12,0,0,1-48.53-84.16L836,976a56.1,56.1,0,0,1,97.17,56.11l-112.2,194.34A56.09,56.09,0,0,1,772.28,1254.47Z"/></svg>