<svg id="Layer_1" data-name="Layer 1" xmlns="http://www.w3.org/2000/svg" viewBox="0 0 1417 1417"><defs><style>.cls-1{fill:#f7be5f;}</style></defs><title>Artboard 1</title><path class="cls-1" d="M190.4,908.88a73.36,73.36,0,0,1-63.44-110L567,36.68A73.34,73.34,0,0,1,694,110L254,872.2A73.34,73.34,0,0,1,190.4,908.88Z"/><path class="cls-1" d="M195.3,1417a73.37,73.37,0,0,1-63.45-110L571.9,544.8a73.34,73.34,0,0,1,127,73.34l-440,762.18A73.34,73.34,0,0,1,195.3,1417Z"/><path class="cls-1" d="M782,400.76a73.36,73.36,0,0,1-63.44-110L865.26,36.68a73.34,73.34,0,0,1,127,73.34L845.6,364.08A73.29,73.29,0,0,1,782,400.76Z"/><path class="cls-1" d="M493.55,1417a73.36,73.36,0,0,1-63.44-110L1163.51,36.68a73.34,73.34,0,0,1,127,73.34L557.13,1380.32A73.31,73.31,0,0,1,493.55,1417Z"/><path class="cls-1" d="M791.8,1417a73.37,73.37,0,0,1-63.45-110l146.68-254a73.34,73.34,0,0,1,127,73.34L855.38,1380.32A73.34,73.34,0,0,1,791.8,1417Z"/></svg>